<svg width="64" height="89" viewBox="0 0 64 89" fill="none" xmlns="http://www.w3.org/2000/svg">
<path d="M55.3863 53.2771L7.30309 53.2771L4.18198 53.2771C3.6297 53.2771 3.18198 52.8294 3.18198 52.2771L3.18198 47.8987C3.18198 47.3521 3.62089 46.9067 4.16745 46.8988L7.36385 46.8523L10.4851 46.9131L55.3863 46.9131L61.1382 49.1638C61.9857 49.4955 61.9857 50.6947 61.1382 51.0263L55.3863 53.2771Z" fill="#EBEBEB"/>
<path d="M7.36385 46.8523L7.30309 53.2771M7.36385 46.8523L4.16745 46.8988C3.62089 46.9067 3.18198 47.3521 3.18198 47.8987L3.18198 52.2771C3.18198 52.8294 3.6297 53.2771 4.18198 53.2771L7.30309 53.2771M7.36385 46.8523L10.4851 46.9131L55.3863 46.9131M55.3863 46.9131L61.1382 49.1638C61.9857 49.4955 61.9857 50.6947 61.1382 51.0263L55.3863 53.2771M55.3863 46.9131L55.3863 53.2771M55.3863 53.2771L7.30309 53.2771" stroke="black"/>
<path d="M6.95837 27.5164L55.3918 27.5164C55.7823 27.5164 56.0989 27.833 56.0989 28.2235L59.2183 28.2235C59.7706 28.2235 60.22 28.6712 60.22 29.2235L60.22 32.0517C60.22 32.604 59.7723 33.0517 59.22 33.0517L56.0989 33.0517C56.0989 33.5094 55.7279 33.8804 55.2702 33.8804L52.9169 33.8804L6.95837 33.8804C6.72753 33.8804 6.50379 33.8005 6.32513 33.6543L2.71232 30.6984L6.32513 27.7425C6.50379 27.5963 6.72753 27.5164 6.95837 27.5164Z" fill="#EBEBEB"/>
<path d="M56.0989 28.2235V28.2235C56.0989 27.833 55.7823 27.5164 55.3918 27.5164L6.95837 27.5164C6.72753 27.5164 6.5038 27.5963 6.32513 27.7425L2.71232 30.6984M56.0989 28.2235L56.0989 33.0517M56.0989 28.2235C56.0989 28.2235 56.7545 28.2235 59.2183 28.2235C59.7706 28.2235 60.22 28.6712 60.22 29.2235L60.22 32.0517C60.22 32.604 59.7723 33.0517 59.22 33.0517L56.0989 33.0517M56.0989 33.0517V33.0517C56.0989 33.5094 55.7279 33.8804 55.2702 33.8804L52.9169 33.8804M2.71232 30.6984L6.32513 33.6543C6.50379 33.8005 6.72753 33.8804 6.95837 33.8804L52.9169 33.8804M2.71232 30.6984C2.14663 30.6984 1.29811 30.6984 1.29811 30.6984M52.9169 33.8804L52.9169 34.6481C52.9169 35.2004 52.4692 35.6481 51.9169 35.6481L38.7748 35.6481" stroke="black"/>
</svg>
