<svg width="35" height="34" viewBox="0 0 35 34" fill="none" xmlns="http://www.w3.org/2000/svg">
<mask id="path-1-inside-1" fill="white">
<path fill-rule="evenodd" clip-rule="evenodd" d="M1.16721 7.82571C0.725643 7.3936 0 7.63731 0 8.25513C0 12.8143 3.75131 16.5103 8.37877 16.5103C9.20826 16.5103 10.0096 16.3915 10.7662 16.1703C11.1406 16.0608 11.551 16.1429 11.8289 16.4167L27.825 32.1768C29.0053 33.3396 30.9188 33.3396 32.0991 32.1768L33.1644 31.1272C34.3447 29.9643 34.3447 28.079 33.1644 26.9162L16.8769 10.869C16.6177 10.6136 16.5226 10.2384 16.5949 9.88178C16.7016 9.35588 16.7575 8.81194 16.7575 8.25513C16.7575 3.69595 13.0062 0 8.37877 0C7.82171 0 7.59957 0.657393 7.99518 1.04957L9.9836 3.02072L11.5621 4.5399C11.8286 4.79644 11.9318 5.17918 11.8302 5.53492L11.2338 7.62399L10.6868 9.73398C10.595 10.0881 10.3171 10.3639 9.96223 10.4529L7.81271 10.9924L5.66982 11.5847C5.32105 11.6811 4.9474 11.5816 4.69281 11.3244L3.14133 9.75753L1.16721 7.82571Z"/>
</mask>
<path d="M27.825 32.1768L26.9127 33.1028V33.1028L27.825 32.1768ZM32.0991 32.1768L31.1867 31.2507L31.1867 31.2507L32.0991 32.1768ZM33.1644 31.1272L34.0768 32.0532L33.1644 31.1272ZM33.1644 26.9162L34.0768 25.9901L33.1644 26.9162ZM9.9836 3.02072L9.06838 3.94396L9.0752 3.95073L9.08213 3.95739L9.9836 3.02072ZM11.2338 7.62399L9.98379 7.26712L9.97943 7.28238L9.97545 7.29774L11.2338 7.62399ZM7.81271 10.9924L7.49628 9.73149L7.48128 9.73526L7.46637 9.73938L7.81271 10.9924ZM3.14133 9.75753L4.06511 8.84285L4.05789 8.83556L4.05056 8.82839L3.14133 9.75753ZM5.66982 11.5847L5.32348 10.3317L5.66982 11.5847ZM4.69281 11.3244L3.76903 12.2391L4.69281 11.3244ZM10.6868 9.73398L11.9452 10.0602L10.6868 9.73398ZM1.16721 7.82571L0.257981 8.75484L1.16721 7.82571ZM11.8302 5.53492L10.5802 5.17806L11.8302 5.53492ZM16.8769 10.869L17.7893 9.94292L16.8769 10.869ZM11.8289 16.4167L10.9165 17.3427L11.8289 16.4167ZM-1.3 8.25513C-1.3 13.5504 3.05162 17.8103 8.37877 17.8103V15.2103C4.45099 15.2103 1.3 12.0782 1.3 8.25513H-1.3ZM8.37877 17.8103C9.33287 17.8103 10.257 17.6736 11.131 17.4181L10.4014 14.9225C9.76219 15.1094 9.08365 15.2103 8.37877 15.2103V17.8103ZM10.9165 17.3427L26.9127 33.1028L28.7374 31.2507L12.7413 15.4906L10.9165 17.3427ZM26.9127 33.1028C28.599 34.7643 31.3252 34.7643 33.0115 33.1028L31.1867 31.2507C30.5125 31.915 29.4116 31.915 28.7374 31.2507L26.9127 33.1028ZM33.0115 33.1028L34.0768 32.0532L32.2521 30.2011L31.1867 31.2507L33.0115 33.1028ZM34.0768 32.0532C35.7739 30.3812 35.7739 27.6621 34.0768 25.9901L32.2521 27.8422C32.9155 28.4958 32.9155 29.5475 32.2521 30.2011L34.0768 32.0532ZM34.0768 25.9901L17.7893 9.94292L15.9645 11.795L32.2521 27.8422L34.0768 25.9901ZM17.869 10.1402C17.9928 9.52976 18.0575 8.89926 18.0575 8.25513H15.4575C15.4575 8.72463 15.4104 9.182 15.3209 9.62336L17.869 10.1402ZM18.0575 8.25513C18.0575 2.95982 13.7059 -1.3 8.37877 -1.3V1.3C12.3066 1.3 15.4575 4.43207 15.4575 8.25513H18.0575ZM7.07996 1.97281L9.06838 3.94396L10.8988 2.09748L8.9104 0.126334L7.07996 1.97281ZM9.08213 3.95739L10.6606 5.47656L12.4636 3.60323L10.8851 2.08405L9.08213 3.95739ZM10.5802 5.17806L9.98379 7.26712L12.4839 7.98085L13.0803 5.89179L10.5802 5.17806ZM9.97545 7.29774L9.42842 9.40774L11.9452 10.0602L12.4922 7.95023L9.97545 7.29774ZM9.6458 9.19205L7.49628 9.73149L8.12915 12.2533L10.2787 11.7138L9.6458 9.19205ZM7.46637 9.73938L5.32348 10.3317L6.01617 12.8377L8.15906 12.2454L7.46637 9.73938ZM5.61659 10.4098L4.06511 8.84285L2.21755 10.6722L3.76903 12.2391L5.61659 10.4098ZM4.05056 8.82839L2.07644 6.89657L0.257981 8.75484L2.2321 10.6867L4.05056 8.82839ZM5.32348 10.3317C5.42811 10.3028 5.54021 10.3326 5.61659 10.4098L3.76903 12.2391C4.3546 12.8305 5.21399 13.0594 6.01617 12.8377L5.32348 10.3317ZM9.42842 9.40774C9.45597 9.30149 9.53934 9.21876 9.6458 9.19205L10.2787 11.7138C11.0949 11.509 11.734 10.8748 11.9452 10.0602L9.42842 9.40774ZM1.3 8.25513C1.3 8.36465 1.26453 8.50359 1.17146 8.63149C1.08252 8.75373 0.966131 8.83153 0.853602 8.87155C0.627203 8.95206 0.395913 8.88982 0.257981 8.75484L2.07644 6.89657C1.49694 6.32948 0.682046 6.17304 -0.0175666 6.42184C-0.743216 6.6799 -1.3 7.36581 -1.3 8.25513H1.3ZM8.37877 -1.3C7.5187 -1.3 6.8537 -0.759073 6.60458 -0.0570404C6.36356 0.622137 6.51809 1.41582 7.07996 1.97281L8.9104 0.126334C9.07666 0.291143 9.14445 0.560042 9.05487 0.812478C8.95718 1.08777 8.68179 1.3 8.37877 1.3V-1.3ZM10.6606 5.47656C10.5806 5.3996 10.5497 5.28478 10.5802 5.17806L13.0803 5.89179C13.3139 5.07358 13.0766 4.19327 12.4636 3.60323L10.6606 5.47656ZM17.7893 9.94292C17.8791 10.0314 17.8734 10.1184 17.869 10.1402L15.3209 9.62336C15.1718 10.3584 15.3562 11.1957 15.9645 11.795L17.7893 9.94292ZM11.131 17.4181C11.107 17.4251 11.0128 17.4376 10.9165 17.3427L12.7413 15.4906C12.0892 14.8481 11.1743 14.6966 10.4014 14.9225L11.131 17.4181Z" fill="black" mask="url(#path-1-inside-1)"/>
</svg>
